<svg width="3549" height="622" viewBox="0 0 3549 622" fill="none" xmlns="http://www.w3.org/2000/svg">
<path d="M128.915 512.01C121.925 512.01 115.855 509.802 110.704 505.386C105.921 500.97 103.53 495.634 103.53 489.378V147.69C103.53 141.434 105.553 136.282 109.6 132.234C114.015 127.818 119.35 125.61 125.604 125.61H277.913C298.515 125.61 317.094 130.394 333.649 139.962C350.205 149.162 363.265 162.042 372.83 178.602C382.764 194.794 387.73 213.562 387.73 234.906C387.73 250.362 384.787 264.898 378.901 278.514C373.014 291.762 364.921 303.354 354.62 313.29C344.318 322.858 332.546 330.218 319.301 335.37L307.161 326.538C319.669 329.482 330.89 334.818 340.823 342.546C350.757 349.906 358.85 359.474 365.105 371.25C371.359 382.658 374.67 396.09 375.038 411.546C375.774 425.162 376.693 436.018 377.797 444.114C378.901 452.21 380.556 458.65 382.764 463.434C384.971 467.85 388.098 471.346 392.145 473.922C397.296 477.234 400.607 481.65 402.078 487.17C403.918 492.69 402.998 498.026 399.319 503.178C397.112 506.49 393.985 508.882 389.938 510.354C385.891 511.458 381.844 511.826 377.797 511.458C373.75 511.09 370.255 509.986 367.312 508.146C361.426 504.834 355.723 500.05 350.205 493.794C344.686 487.17 340.088 477.786 336.409 465.642C332.73 453.498 330.89 436.938 330.89 415.962C330.89 404.186 329.051 394.434 325.372 386.706C321.693 378.978 316.726 372.722 310.472 367.938C304.218 363.154 297.228 359.842 289.502 358.002C281.776 356.162 273.866 355.242 265.772 355.242H142.711L149.333 345.306V489.378C149.333 495.634 147.494 500.97 143.815 505.386C140.136 509.802 135.169 512.01 128.915 512.01ZM142.711 315.498H277.913C288.582 314.762 298.515 311.082 307.713 304.458C317.278 297.834 325.004 288.634 330.89 276.858C337.144 264.714 340.272 251.098 340.272 236.01C340.272 216.506 334.017 200.314 321.509 187.434C309.368 174.554 293.917 168.114 275.154 168.114H144.918L149.333 157.626V325.434L142.711 315.498Z" fill="currentColor"/>
<path d="M705.972 223.866C712.227 223.866 717.377 226.074 721.424 230.49C725.839 234.538 728.046 239.69 728.046 245.946V489.378C728.046 495.634 725.839 500.97 721.424 505.386C717.377 509.802 712.227 512.01 705.972 512.01C699.35 512.01 694.016 509.802 689.969 505.386C685.922 500.97 683.899 495.634 683.899 489.378V436.938L694.384 435.834C694.384 443.93 691.625 452.762 686.106 462.33C680.588 471.898 673.046 480.914 663.48 489.378C653.915 497.474 642.51 504.282 629.266 509.802C616.39 514.954 602.41 517.53 587.326 517.53C562.309 517.53 539.867 511.09 520.001 498.21C500.134 484.962 484.315 467.114 472.542 444.666C461.137 422.218 455.435 396.642 455.435 367.938C455.435 338.866 461.137 313.29 472.542 291.21C484.315 268.762 500.134 251.282 520.001 238.77C539.867 225.89 561.941 219.45 586.222 219.45C602.042 219.45 616.757 222.026 630.37 227.178C643.982 232.33 655.755 239.322 665.688 248.154C675.989 256.986 683.899 266.738 689.417 277.41C695.303 288.082 698.247 298.754 698.247 309.426L683.899 306.114V245.946C683.899 239.69 685.922 234.538 689.969 230.49C694.016 226.074 699.35 223.866 705.972 223.866ZM592.292 476.682C610.687 476.682 626.875 471.898 640.855 462.33C655.203 452.762 666.24 439.882 673.965 423.69C682.059 407.13 686.106 388.546 686.106 367.938C686.106 347.698 682.059 329.482 673.965 313.29C666.24 296.73 655.203 283.85 640.855 274.65C626.875 265.082 610.687 260.298 592.292 260.298C574.265 260.298 558.078 264.898 543.73 274.098C529.75 283.298 518.713 295.994 510.619 312.186C502.526 328.378 498.479 346.962 498.479 367.938C498.479 388.546 502.342 407.13 510.067 423.69C518.161 439.882 529.198 452.762 543.178 462.33C557.526 471.898 573.898 476.682 592.292 476.682Z" fill="currentColor"/>
<path d="M852.354 489.378C852.354 495.634 850.146 500.97 845.732 505.386C841.685 509.802 836.534 512.01 830.28 512.01C823.658 512.01 818.323 509.802 814.276 505.386C810.229 500.97 808.206 495.634 808.206 489.378V244.29C808.206 238.034 810.229 232.882 814.276 228.834C818.691 224.418 824.026 222.21 830.28 222.21C836.534 222.21 841.685 224.418 845.732 228.834C850.146 232.882 852.354 238.034 852.354 244.29V489.378ZM830.28 185.226C821.082 185.226 814.276 183.386 809.862 179.706C805.447 176.026 803.239 170.322 803.239 162.594V154.866C803.239 147.138 805.631 141.434 810.413 137.754C815.196 134.074 822.002 132.234 830.832 132.234C839.661 132.234 846.283 134.074 850.698 137.754C855.113 141.434 857.32 147.138 857.32 154.866V162.594C857.32 170.322 854.929 176.026 850.146 179.706C845.732 183.386 839.109 185.226 830.28 185.226Z" fill="currentColor"/>
<path d="M1073.48 219.45C1098.5 219.45 1118.18 224.602 1132.53 234.906C1146.88 245.21 1156.99 259.01 1162.88 276.306C1169.13 293.602 1172.26 312.922 1172.26 334.266V489.378C1172.26 495.634 1170.05 500.97 1165.64 505.386C1161.59 509.802 1156.44 512.01 1150.19 512.01C1143.93 512.01 1138.6 509.802 1134.18 505.386C1130.14 500.97 1128.11 495.634 1128.11 489.378V335.37C1128.11 321.386 1125.91 308.874 1121.49 297.834C1117.44 286.426 1110.45 277.41 1100.52 270.786C1090.95 263.794 1077.71 260.298 1060.79 260.298C1045.34 260.298 1031.17 263.794 1018.3 270.786C1005.42 277.41 995.118 286.426 987.392 297.834C979.666 308.874 975.803 321.386 975.803 335.37V489.378C975.803 495.634 973.596 500.97 969.181 505.386C965.134 509.802 959.984 512.01 953.729 512.01C947.475 512.01 942.141 509.802 937.726 505.386C933.679 500.97 931.656 495.634 931.656 489.378V248.706C931.656 242.45 933.679 237.298 937.726 233.25C942.141 228.834 947.475 226.626 953.729 226.626C960.352 226.626 965.686 228.834 969.733 233.25C973.78 237.298 975.803 242.45 975.803 248.706V287.898L964.766 300.042C966.606 290.474 970.837 280.906 977.459 271.338C984.081 261.402 992.359 252.57 1002.29 244.842C1012.22 237.114 1023.26 231.042 1035.4 226.626C1047.54 221.842 1060.24 219.45 1073.48 219.45Z" fill="currentColor"/>
<path d="M1676.85 368.49C1676.85 397.194 1670.42 422.77 1657.54 445.218C1645.03 467.666 1627.92 485.33 1606.22 498.21C1584.88 511.09 1560.78 517.53 1533.93 517.53C1507.07 517.53 1482.79 511.09 1461.08 498.21C1439.38 485.33 1422.09 467.666 1409.21 445.218C1396.7 422.77 1390.45 397.194 1390.45 368.49C1390.45 339.786 1396.7 314.21 1409.21 291.762C1422.09 269.314 1439.38 251.65 1461.08 238.77C1482.79 225.89 1507.07 219.45 1533.93 219.45C1560.78 219.45 1584.88 225.89 1606.22 238.77C1627.92 251.65 1645.03 269.314 1657.54 291.762C1670.42 314.21 1676.85 339.786 1676.85 368.49ZM1632.71 368.49C1632.71 347.146 1628.29 328.378 1619.46 312.186C1611 295.994 1599.23 283.298 1584.14 274.098C1569.43 264.898 1552.69 260.298 1533.93 260.298C1515.16 260.298 1498.24 264.898 1483.16 274.098C1468.44 283.298 1456.67 295.994 1447.84 312.186C1439.01 328.378 1434.59 347.146 1434.59 368.49C1434.59 389.466 1439.01 408.05 1447.84 424.242C1456.67 440.434 1468.44 453.314 1483.16 462.882C1498.24 472.082 1515.16 476.682 1533.93 476.682C1552.69 476.682 1569.43 472.082 1584.14 462.882C1599.23 453.314 1611 440.434 1619.46 424.242C1628.29 408.05 1632.71 389.466 1632.71 368.49Z" fill="currentColor"/>
<path d="M1765.33 512.01C1759.08 512.01 1753.74 509.802 1749.33 505.386C1745.28 500.97 1743.26 495.634 1743.26 489.378V248.706C1743.26 242.45 1745.28 237.298 1749.33 233.25C1753.74 228.834 1759.08 226.626 1765.33 226.626C1771.95 226.626 1777.29 228.834 1781.33 233.25C1785.38 237.298 1787.4 242.45 1787.4 248.706V321.57L1780.78 309.978C1782.99 298.57 1786.85 287.53 1792.37 276.858C1798.26 265.818 1805.61 256.066 1814.44 247.602C1823.27 238.77 1833.39 231.962 1844.8 227.178C1856.2 222.026 1868.71 219.45 1882.32 219.45C1890.41 219.45 1897.77 221.474 1904.39 225.522C1911.38 229.202 1914.88 234.538 1914.88 241.53C1914.88 249.258 1912.86 254.962 1908.81 258.642C1904.76 262.322 1900.16 264.162 1895.01 264.162C1890.23 264.162 1885.63 263.242 1881.22 261.402C1876.8 259.194 1871.28 258.09 1864.66 258.09C1855.46 258.09 1846.27 260.666 1837.07 265.818C1828.24 270.602 1819.96 277.594 1812.24 286.794C1804.88 295.994 1798.81 306.482 1794.03 318.258C1789.61 329.666 1787.4 341.994 1787.4 355.242V489.378C1787.4 495.634 1785.2 500.97 1780.78 505.386C1776.73 509.802 1771.58 512.01 1765.33 512.01Z" fill="currentColor"/>
<path d="M2237.02 517.53C2209.8 517.53 2185.89 513.482 2165.28 505.386C2144.68 497.29 2124.82 484.41 2105.68 466.746C2103.11 464.17 2100.9 461.41 2099.06 458.466C2097.59 455.154 2096.86 451.658 2096.86 447.978C2096.86 442.09 2098.88 436.938 2102.93 432.522C2107.34 427.738 2112.67 425.346 2118.93 425.346C2124.08 425.346 2128.68 427.37 2132.73 431.418C2147.07 445.402 2162.52 456.074 2179.08 463.434C2196 470.794 2214.95 474.474 2235.92 474.474C2252.11 474.474 2266.64 471.898 2279.52 466.746C2292.76 461.594 2303.25 454.418 2310.97 445.218C2318.7 436.018 2322.56 425.346 2322.56 413.202C2322.19 398.482 2317.78 386.338 2309.32 376.77C2301.22 367.202 2289.82 359.29 2275.1 353.034C2260.75 346.41 2244.01 340.89 2224.88 336.474C2207.96 332.426 2192.32 327.458 2177.98 321.57C2164 315.682 2151.86 308.506 2141.55 300.042C2131.25 291.21 2123.16 280.722 2117.27 268.578C2111.75 256.066 2109 241.53 2109 224.97C2109 203.994 2114.51 185.594 2125.55 169.77C2136.59 153.946 2151.86 141.802 2171.35 133.338C2190.85 124.506 2213.29 120.09 2238.68 120.09C2261.12 120.09 2282.28 123.77 2302.14 131.13C2322.38 138.49 2338.56 148.61 2350.7 161.49C2358.06 168.482 2361.74 175.29 2361.74 181.914C2361.74 187.434 2359.35 192.586 2354.57 197.37C2350.15 201.786 2345 203.994 2339.12 203.994C2335.07 203.994 2331.39 202.522 2328.08 199.578C2321.82 192.586 2313.91 186.33 2304.35 180.81C2294.78 175.29 2284.3 170.874 2272.89 167.562C2261.49 164.25 2250.08 162.594 2238.68 162.594C2221.76 162.594 2206.86 165.17 2193.98 170.322C2181.1 175.106 2170.99 182.098 2163.63 191.298C2156.64 200.13 2153.14 210.802 2153.14 223.314C2153.14 237.298 2157.19 248.89 2165.28 258.09C2173.38 266.922 2184.23 274.282 2197.84 280.17C2211.45 285.69 2226.54 290.658 2243.09 295.074C2261.12 299.49 2277.68 304.642 2292.76 310.53C2308.21 316.05 2321.46 323.042 2332.49 331.506C2343.53 339.97 2351.99 350.826 2357.88 364.074C2364.13 376.954 2367.26 392.962 2367.26 412.098C2367.26 432.338 2361.56 450.37 2350.15 466.194C2338.75 482.018 2323.11 494.53 2303.25 503.73C2283.75 512.562 2261.67 517.162 2237.02 517.53Z" fill="currentColor"/>
<path d="M2571.56 222.21C2595.84 222.21 2614.97 227.546 2628.95 238.218C2643.3 248.522 2653.42 262.506 2659.31 280.17C2665.56 297.466 2668.69 316.786 2668.69 338.13V489.378C2668.69 495.634 2666.48 500.97 2662.07 505.386C2658.02 509.802 2652.87 512.01 2646.61 512.01C2640.36 512.01 2635.02 509.802 2630.61 505.386C2626.56 500.97 2624.54 495.634 2624.54 489.378V338.13C2624.54 324.146 2622.52 311.634 2618.47 300.594C2614.42 289.186 2607.62 280.17 2598.05 273.546C2588.85 266.554 2576.16 263.058 2559.97 263.058C2544.89 263.058 2531.09 266.554 2518.59 273.546C2506.08 280.17 2496.14 289.186 2488.79 300.594C2481.43 311.634 2477.75 324.146 2477.75 338.13V489.378C2477.75 495.634 2475.54 500.97 2471.13 505.386C2467.08 509.802 2461.93 512.01 2455.68 512.01C2449.42 512.01 2444.09 509.802 2439.67 505.386C2435.62 500.97 2433.6 495.634 2433.6 489.378V125.61C2433.6 119.354 2435.62 114.202 2439.67 110.154C2444.09 105.738 2449.42 103.53 2455.68 103.53C2462.3 103.53 2467.63 105.738 2471.68 110.154C2475.73 114.202 2477.75 119.354 2477.75 125.61V290.658L2466.71 302.802C2468.55 293.234 2472.6 283.666 2478.85 274.098C2485.11 264.162 2493.02 255.33 2502.58 247.602C2512.15 239.874 2522.82 233.802 2534.59 229.386C2546.36 224.602 2558.69 222.21 2571.56 222.21Z" fill="currentColor"/>
<path d="M2792.97 489.378C2792.97 495.634 2790.77 500.97 2786.35 505.386C2782.3 509.802 2777.15 512.01 2770.9 512.01C2764.28 512.01 2758.94 509.802 2754.9 505.386C2750.85 500.97 2748.83 495.634 2748.83 489.378V244.29C2748.83 238.034 2750.85 232.882 2754.9 228.834C2759.31 224.418 2764.65 222.21 2770.9 222.21C2777.15 222.21 2782.3 224.418 2786.35 228.834C2790.77 232.882 2792.97 238.034 2792.97 244.29V489.378ZM2770.9 185.226C2761.7 185.226 2754.9 183.386 2750.48 179.706C2746.07 176.026 2743.86 170.322 2743.86 162.594V154.866C2743.86 147.138 2746.25 141.434 2751.03 137.754C2755.82 134.074 2762.62 132.234 2771.45 132.234C2780.28 132.234 2786.9 134.074 2791.32 137.754C2795.73 141.434 2797.94 147.138 2797.94 154.866V162.594C2797.94 170.322 2795.55 176.026 2790.77 179.706C2786.35 183.386 2779.73 185.226 2770.9 185.226Z" fill="currentColor"/>
<path d="M3014.1 219.45C3039.12 219.45 3058.8 224.602 3073.15 234.906C3087.49 245.21 3097.61 259.01 3103.5 276.306C3109.75 293.602 3112.88 312.922 3112.88 334.266V489.378C3112.88 495.634 3110.67 500.97 3106.26 505.386C3102.21 509.802 3097.06 512.01 3090.81 512.01C3084.55 512.01 3079.22 509.802 3074.8 505.386C3070.76 500.97 3068.73 495.634 3068.73 489.378V335.37C3068.73 321.386 3066.52 308.874 3062.11 297.834C3058.06 286.426 3051.07 277.41 3041.14 270.786C3031.57 263.794 3018.33 260.298 3001.41 260.298C2985.96 260.298 2971.79 263.794 2958.91 270.786C2946.04 277.41 2935.74 286.426 2928.01 297.834C2920.29 308.874 2916.42 321.386 2916.42 335.37V489.378C2916.42 495.634 2914.22 500.97 2909.8 505.386C2905.75 509.802 2900.6 512.01 2894.35 512.01C2888.09 512.01 2882.76 509.802 2878.35 505.386C2874.3 500.97 2872.28 495.634 2872.28 489.378V248.706C2872.28 242.45 2874.3 237.298 2878.35 233.25C2882.76 228.834 2888.09 226.626 2894.35 226.626C2900.97 226.626 2906.31 228.834 2910.35 233.25C2914.4 237.298 2916.42 242.45 2916.42 248.706V287.898L2905.39 300.042C2907.23 290.474 2911.46 280.906 2918.08 271.338C2924.7 261.402 2932.98 252.57 2942.91 244.842C2952.84 237.114 2963.88 231.042 2976.02 226.626C2988.16 221.842 3000.86 219.45 3014.1 219.45Z" fill="currentColor"/>
<path d="M3326.43 517.53C3297 517.53 3271.25 511.274 3249.18 498.762C3227.1 486.25 3209.81 469.138 3197.3 447.426C3185.16 425.346 3179.09 399.954 3179.09 371.25C3179.09 339.234 3185.35 312.002 3197.86 289.554C3210.73 266.738 3227.29 249.442 3247.52 237.666C3268.12 225.522 3289.83 219.45 3312.64 219.45C3329.56 219.45 3345.93 222.578 3361.75 228.834C3377.57 235.09 3391.55 244.29 3403.69 256.434C3415.83 268.21 3425.58 282.562 3432.94 299.49C3440.3 316.05 3444.16 334.634 3444.53 355.242C3444.53 361.13 3442.32 366.098 3437.91 370.146C3433.49 374.194 3428.34 376.218 3422.46 376.218H3204.48L3194.54 338.13H3407L3398.17 345.858V333.714C3396.7 318.626 3391.55 305.746 3382.72 295.074C3374.26 284.034 3363.78 275.57 3351.27 269.682C3339.13 263.794 3326.25 260.85 3312.64 260.85C3301.6 260.85 3290.57 262.874 3279.53 266.922C3268.86 270.602 3259.11 276.858 3250.28 285.69C3241.82 294.154 3234.83 305.194 3229.31 318.81C3224.16 332.426 3221.58 348.802 3221.58 367.938C3221.58 389.282 3225.82 408.05 3234.28 424.242C3243.11 440.434 3255.25 453.314 3270.7 462.882C3286.15 472.082 3304.18 476.682 3324.78 476.682C3337.66 476.682 3348.88 475.026 3358.44 471.714C3368.01 468.402 3376.29 464.354 3383.28 459.57C3390.27 454.418 3396.15 449.266 3400.93 444.114C3405.72 440.802 3410.32 439.146 3414.73 439.146C3420.25 439.146 3424.66 440.986 3427.97 444.666C3431.65 448.346 3433.49 452.762 3433.49 457.914C3433.49 464.17 3430.55 469.69 3424.66 474.474C3414.36 485.882 3400.38 496.002 3382.72 504.834C3365.06 513.298 3346.3 517.53 3326.43 517.53Z" fill="currentColor"/>
</svg>
